<?xml version="1.0" encoding="UTF-8" standalone="no"?><!DOCTYPE svg PUBLIC "-//W3C//DTD SVG 1.1//EN" "http://www.w3.org/Graphics/SVG/1.1/DTD/svg11.dtd"><svg width="100%" height="100%" viewBox="0 0 394 380" version="1.1" xmlns="http://www.w3.org/2000/svg" xmlns:xlink="http://www.w3.org/1999/xlink" xml:space="preserve" xmlns:serif="http://www.serif.com/" style="fill-rule:evenodd;clip-rule:evenodd;stroke-linejoin:round;stroke-miterlimit:2;"><g><path d="M10.501,323.085l0,-174.631c0,-19.331 12.115,-36.588 30.295,-43.156l42.534,-15.366c16.534,-5.973 28.202,-20.868 30.043,-38.352c2.87,-27.261 28.846,-45.941 55.604,-39.985l163.292,36.349c19.783,4.403 34.334,21.264 35.796,41.479l15.124,209.062c1.824,25.216 -17.092,47.156 -42.301,49.066l-281.035,21.289c-26.632,2.017 -49.352,-19.047 -49.352,-45.755" style="fill:#3f73b6;fill-rule:nonzero;"/><path d="M308.401,169.659c2.289,-4.908 3.387,-10.479 2.916,-16.339c-1.274,-15.878 -14.221,-28.659 -30.112,-29.744c-12.526,-0.855 -23.682,5.438 -29.801,15.198c-3.086,4.923 -9.597,6.369 -14.375,3.061c-0.067,-0.047 -0.134,-0.093 -0.201,-0.139c-4.499,-3.093 -5.751,-9.215 -2.771,-13.79c5.452,-8.371 8.313,-18.575 7.423,-29.475c-1.918,-23.489 -21.411,-42.114 -44.961,-43.032c-26.758,-1.042 -48.858,20.423 -48.858,46.953c0,9.356 2.752,18.077 7.487,25.406c3,4.643 1.879,10.806 -2.677,13.939c-0.067,0.046 -0.133,0.092 -0.2,0.138c-4.777,3.308 -11.288,1.862 -14.374,-3.061c-6.119,-9.76 -17.275,-16.053 -29.801,-15.198c-15.891,1.085 -28.838,13.866 -30.112,29.744c-0.471,5.86 0.627,11.431 2.916,16.339c1.936,4.151 0.69,9.064 -2.776,12.058c-12.581,10.865 -20.56,26.917 -20.56,44.806l0,57.811c0,6.417 2.549,12.571 7.086,17.109c4.538,4.537 10.692,7.086 17.109,7.086l43.894,0c2.835,0 5.67,-0.001 8.504,-0.001l120.987,0c2.834,0 5.669,0.001 8.504,0.001l43.894,0c6.417,0 12.571,-2.549 17.109,-7.086c4.537,-4.538 7.086,-10.692 7.086,-17.109l0,-57.811c0,-17.889 -7.979,-33.941 -20.56,-44.806c-3.466,-2.994 -4.712,-7.907 -2.776,-12.058" style="fill:#f9e8d5;fill-rule:nonzero;"/><path d="M255.144,294.356l-120.986,0l0,-91.088c0,-33.409 27.083,-60.493 60.493,-60.493c33.409,0 60.493,27.084 60.493,60.493l0,91.088Z" style="fill:#3f73b6;fill-rule:nonzero;"/><path d="M125.654,203.269c0,-7.025 1.062,-13.805 3.022,-20.197c-3.789,-1.034 -7.772,-1.597 -11.889,-1.597c-24.88,0 -45.049,20.169 -45.049,45.049l0,67.832l53.916,0l0,-91.087Z" style="fill:#3f73b6;fill-rule:nonzero;"/><path d="M272.515,181.474c-4.117,0 -8.101,0.563 -11.89,1.598c1.961,6.391 3.023,13.171 3.023,20.196l0,91.088l53.916,0l0,-67.833c0,-24.88 -20.169,-45.049 -45.049,-45.049" style="fill:#3f73b6;fill-rule:nonzero;"/><path d="M128.676,155.985c0,10.114 -8.199,18.313 -18.313,18.313c-10.114,0 -18.313,-8.199 -18.313,-18.313c0,-10.114 8.199,-18.313 18.313,-18.313c10.114,0 18.313,8.199 18.313,18.313" style="fill:#3f73b6;fill-rule:nonzero;"/><path d="M297.251,155.985c0,10.114 -8.199,18.313 -18.313,18.313c-10.114,0 -18.313,-8.199 -18.313,-18.313c0,-10.114 8.199,-18.313 18.313,-18.313c10.114,0 18.313,8.199 18.313,18.313" style="fill:#3f73b6;fill-rule:nonzero;"/><path d="M227.467,102.353c0,18.124 -14.692,32.816 -32.816,32.816c-18.124,0 -32.817,-14.692 -32.817,-32.816c0,-18.124 14.693,-32.816 32.817,-32.816c18.124,0 32.816,14.692 32.816,32.816" style="fill:#3f73b6;fill-rule:nonzero;"/><path d="M125.654,203.269c0,-7.025 1.062,-13.805 3.022,-20.197c-3.789,-1.034 -7.772,-1.597 -11.889,-1.597c-24.88,0 -45.049,20.169 -45.049,45.049l0,67.832l53.916,0l0,-91.087Z" style="fill:#3f73b6;fill-rule:nonzero;"/><path d="M272.515,181.474c-4.117,0 -8.101,0.563 -11.89,1.598c1.961,6.391 3.023,13.171 3.023,20.196l0,91.088l53.916,0l0,-67.833c0,-24.88 -20.169,-45.049 -45.049,-45.049" style="fill:#3f73b6;fill-rule:nonzero;"/><path d="M128.676,155.985c0,10.114 -8.199,18.313 -18.313,18.313c-10.114,0 -18.313,-8.199 -18.313,-18.313c0,-10.114 8.199,-18.313 18.313,-18.313c10.114,0 18.313,8.199 18.313,18.313" style="fill:#3f73b6;fill-rule:nonzero;"/><path d="M297.251,155.985c0,10.114 -8.199,18.313 -18.313,18.313c-10.114,0 -18.313,-8.199 -18.313,-18.313c0,-10.114 8.199,-18.313 18.313,-18.313c10.114,0 18.313,8.199 18.313,18.313" style="fill:#3f73b6;fill-rule:nonzero;"/><path d="M227.467,102.353c0,18.124 -14.692,32.816 -32.816,32.816c-18.124,0 -32.817,-14.692 -32.817,-32.816c0,-18.124 14.693,-32.816 32.817,-32.816c18.124,0 32.816,14.692 32.816,32.816" style="fill:#3f73b6;fill-rule:nonzero;"/><path d="M159.019,21c-7.354,0 -14.604,2.292 -20.672,6.655c-8.181,5.883 -13.477,15.004 -14.532,25.025c-2.247,21.339 -16.738,39.838 -36.918,47.127l-42.533,15.366c-13.974,5.049 -23.364,18.424 -23.364,33.281l0,174.631c0,9.961 4.023,19.177 11.329,25.949c7.305,6.774 16.801,10.092 26.731,9.336l281.035,-21.289c19.39,-1.469 34.024,-18.442 32.62,-37.838l-15.123,-209.062c-1.136,-15.71 -12.23,-28.566 -27.605,-31.989l-163.292,-36.348c-2.54,-0.566 -5.115,-0.844 -7.676,-0.844m-102.596,358.47c-14.147,0 -27.937,-5.361 -38.372,-15.035c-11.471,-10.636 -18.051,-25.707 -18.051,-41.35l0,-174.631c0,-23.675 14.961,-44.987 37.228,-53.031l42.534,-15.366c12.664,-4.576 21.758,-16.185 23.168,-29.577c1.681,-15.966 10.121,-30.501 23.156,-39.874c13.036,-9.375 29.501,-12.752 45.172,-9.26l163.292,36.348c24.499,5.454 42.177,25.938 43.988,50.971l15.123,209.063c2.235,30.906 -21.082,57.953 -51.98,60.293l-281.036,21.289c-1.408,0.107 -2.817,0.16 -4.222,0.16" style="fill:#f9e8d5;fill-rule:nonzero;"/><path d="M159.022,13.001c-9.017,0 -17.907,2.81 -25.346,8.159c-10.029,7.213 -16.524,18.396 -17.817,30.682c-1.928,18.311 -14.363,34.185 -31.68,40.441l-42.533,15.366c-17.134,6.19 -28.645,22.588 -28.645,40.805l0,174.631c0,12.214 4.932,23.513 13.889,31.816c8.956,8.304 20.601,12.371 32.774,11.446l281.035,-21.289c23.774,-1.8 41.716,-22.612 39.995,-46.392l-15.123,-209.062c-1.393,-19.262 -14.995,-35.024 -33.846,-39.22l-163.292,-36.349c-3.115,-0.693 -6.271,-1.034 -9.411,-1.034m-102.604,358.469c-12.14,0 -23.973,-4.6 -32.928,-12.902c-9.843,-9.127 -15.489,-22.059 -15.489,-35.483l0,-174.631c0,-20.316 12.837,-38.604 31.945,-45.508l42.534,-15.366c15.527,-5.608 26.678,-19.843 28.406,-36.262c1.443,-13.702 8.685,-26.173 19.871,-34.216c11.185,-8.044 25.315,-10.941 38.763,-7.948l163.292,36.349c21.023,4.681 36.192,22.258 37.747,43.739l15.123,209.063c1.918,26.521 -18.092,49.731 -44.605,51.739l-281.035,21.289c-1.209,0.091 -2.418,0.137 -3.624,0.137" style="fill:#2f3335;fill-rule:nonzero;"/></g></svg>