<svg xmlns="http://www.w3.org/2000/svg" width="100" height="100" viewBox="0 0 100 100">
    <rect width="100%" height="100%" fill="white"/>
    <path fill="#FFA500" d="M50 10C30 10 10 30 10 50s20 40 40 40 40-20 40-40S70 10 50 10zm-6 70c-8 0-14-6-14-14s6-14 14-14 14 6 14 14-6 14-14 14zm15-15c-1 2-3 4-5 5s-4 1-5 0-3-3-4-5 1-4 2-5 4-1 5 0 3 3 4 5zm2-5c-3-1-5-4-5-7s2-5 5-5 5 2 5 5-2 6-5 7z"/>
    <path fill="#FF0000" d="M30 40c1-1 4-1 5-2s1-4 2-5-4-3-5-4-3 2-4 2-2-3-1-4 3-2 4-1c2 1 3 3 3 5s-2 5-1 7 5 2 8 0c2-2 3-5 2-6s-4-1-5-2-2-4-2-5 3-5 4-4 2 3 3 5-1 5-3 6-4 1-5 0-3-1-3-3 1-3 2-4-1-1-2 0-2 1-3 2-2 2-2 4 2 5 2 6 1 4-2 5s-5-1-6-2-2-4-2-5 1-5 2-6zm-6 0c0-7 7-8 8-8s-1 5-2 6-5 1-6 2-3-1-3-2z"/>
    <path fill="#008000" d="M55 30c0 5-6 6-8 6s1-4 3-5 5 0 5-1z"/>
    <path fill="#0000FF" d="M40 35c0-2 2-3 3-3s1 1 1 3-1 3-2 3-2-1-2-3z"/>
</svg>
