<?xml version="1.0" encoding="UTF-8" standalone="no"?><!DOCTYPE svg PUBLIC "-//W3C//DTD SVG 1.1//EN" "http://www.w3.org/Graphics/SVG/1.1/DTD/svg11.dtd"><svg width="100%" height="100%" viewBox="0 0 347 347" version="1.1" xmlns="http://www.w3.org/2000/svg" xmlns:xlink="http://www.w3.org/1999/xlink" xml:space="preserve" xmlns:serif="http://www.serif.com/" style="fill-rule:evenodd;clip-rule:evenodd;stroke-linejoin:round;stroke-miterlimit:2;"><g><path d="M23.245,276.501l-12.614,-179.55c-1.783,-25.382 14.755,-48.437 39.369,-54.883l113.945,-29.843c25.381,-6.647 51.798,6.311 62.077,30.45l55.335,129.955c8.308,19.512 27.466,32.176 48.673,32.176l-48.843,-8.445c30.081,0 54.108,25.05 52.856,55.105l-1.439,34.536c-1.229,29.49 -26.352,52.271 -55.821,50.617l-203.731,-11.006c-26.6,-1.493 -47.94,-22.535 -49.807,-49.112" style="fill:#367c64;fill-rule:nonzero;"/><path d="M33.719,275.765c1.493,21.248 18.655,38.17 39.922,39.364l206.13,9.851c11.425,0.649 22.383,-3.238 30.86,-10.923c8.476,-7.686 13.406,-18.214 13.882,-29.647l1.439,-34.536c0.486,-11.65 -3.693,-22.702 -11.765,-31.117c-8.072,-8.415 -32.515,-18.587 -42.491,-42.013l-55.335,-129.955c-8.176,-19.201 -29.566,-29.693 -49.756,-24.407l-113.945,29.843c-19.712,5.163 -32.983,23.663 -31.554,43.99l12.613,179.55Zm248.519,70.285c-1.211,0 -2.425,-0.034 -3.644,-0.103l-206.13,-9.851c-31.799,-1.785 -57.461,-27.089 -59.693,-58.858l-0,-0.001l-12.614,-179.55c-2.135,-30.394 17.708,-58.058 47.183,-65.776l113.945,-29.843c14.712,-3.854 30.332,-2.286 43.986,4.411c13.654,6.697 24.454,18.092 30.411,32.084l55.335,129.954c6.672,15.667 26.255,23.12 38.325,35.703c12.07,12.583 18.318,29.107 17.592,46.528l-1.439,34.537c-0.713,17.094 -8.085,32.836 -20.759,44.328c-11.769,10.672 -26.742,16.437 -42.498,16.437" style="fill:#f9e8d5;fill-rule:nonzero;"/><path d="M25.739,276.326c1.774,25.256 22.175,45.371 47.454,46.79l207.714,11.11c13.579,0.759 24.447,-4.809 34.522,-13.944c10.075,-9.136 15.936,-21.652 16.501,-35.24l1.439,-34.537c0.578,-13.848 -4.389,-26.985 -13.984,-36.988c-9.595,-10.003 -31.611,-19.437 -40.328,-39.908l-55.335,-129.954c-9.719,-22.825 -35.144,-35.296 -59.143,-29.013l-113.945,29.843c-23.431,6.137 -39.206,28.128 -37.508,52.291l12.613,179.55Zm258.072,62.982c-1.058,0 -2.119,-0.03 -3.184,-0.09l-207.714,-11.11c-27.787,-1.559 -50.211,-23.671 -52.161,-51.432l-12.614,-179.55c-1.866,-26.559 15.474,-50.732 41.229,-57.477l113.945,-29.843c12.854,-3.369 26.506,-1.999 38.436,3.854c11.931,5.853 21.368,15.81 26.574,28.036l55.335,129.954c7.931,18.623 28.79,27.411 39.336,38.406c10.547,10.995 16.006,25.435 15.373,40.658l-1.439,34.537c-0.623,14.936 -7.065,28.692 -18.14,38.734c-10.284,9.326 -21.208,15.323 -34.976,15.323" style="fill:#2f3335;fill-rule:nonzero;"/><path d="M144.687,185.597c25.021,-10.089 41.406,-34.363 41.406,-61.341l0,-6.936c0,-12.32 -3.362,-24.406 -9.724,-34.956l-0.788,-1.308c-0.282,-0.467 -0.787,-0.753 -1.333,-0.753l-87.733,0c-0.546,0 -1.052,0.286 -1.333,0.753l-0.788,1.307c-6.362,10.55 -9.724,22.637 -9.724,34.957l0,6.936c0,26.978 16.385,51.252 41.406,61.341c3.37,1.165 6.74,2.329 10.11,3.494c0.627,0.216 1.048,0.807 1.048,1.471l0,100.614c0,0.7 -0.465,1.317 -1.14,1.501c-3.066,0.835 -6.359,1.622 -9.865,2.316c-3.661,0.724 -7.143,1.264 -10.412,1.664l-10.724,1.117c-1.255,0.13 -1.158,1.987 0.103,1.987l70.371,0c1.261,0 1.357,-1.857 0.103,-1.987l-10.724,-1.117c-3.269,-0.4 -6.751,-0.94 -10.412,-1.664c-3.506,-0.694 -6.799,-1.481 -9.865,-2.316c-0.675,-0.184 -1.14,-0.801 -1.14,-1.501l0,-100.614c0,-0.664 0.42,-1.255 1.048,-1.471c3.37,-1.165 6.74,-2.329 10.11,-3.494" style="fill:#f9e8d5;fill-rule:nonzero;"/><path d="M130.382,184.368c-0.643,-0.489 -1.369,-0.882 -2.161,-1.156l-9.961,-3.442c-22.707,-9.222 -37.37,-30.996 -37.37,-55.514l0,-6.936c0,-10.82 2.856,-21.443 8.27,-30.797l82.443,0c5.414,9.354 8.27,19.977 8.27,30.797l0,6.936c0,24.518 -14.662,46.292 -37.37,55.514l-9.957,3.44c-0.794,0.275 -1.52,0.669 -2.164,1.158" style="fill:#367f67;fill-rule:nonzero;"/><path d="M307.489,272.244l-142.462,0l10.493,19.154l0,8.363l121.477,0l0,-8.363l10.493,-19.154Z" style="fill:#f9e8d5;fill-rule:nonzero;"/></g></svg>