<?xml version="1.0" encoding="UTF-8" standalone="no"?><!DOCTYPE svg PUBLIC "-//W3C//DTD SVG 1.1//EN" "http://www.w3.org/Graphics/SVG/1.1/DTD/svg11.dtd"><svg width="100%" height="100%" viewBox="0 0 375 365" version="1.1" xmlns="http://www.w3.org/2000/svg" xmlns:xlink="http://www.w3.org/1999/xlink" xml:space="preserve" xmlns:serif="http://www.serif.com/" style="fill-rule:evenodd;clip-rule:evenodd;stroke-linejoin:round;stroke-miterlimit:2;"><g><path d="M16.352,181.479l106.389,-156.311c9.201,-13.518 26.825,-18.405 41.674,-11.557l180.383,83.19c15.382,7.094 23.036,24.566 17.822,40.684l-55.194,170.599c-3.659,11.31 -13.045,19.83 -24.655,22.381l-104.422,22.941c-10.83,2.379 -22.136,-0.761 -30.187,-8.386l-127.157,-120.42c-11.918,-11.287 -13.889,-29.552 -4.653,-43.121" style="fill:#c85832;fill-rule:nonzero;"/><path d="M25.032,187.387c-6.37,9.359 -5.027,21.804 3.194,29.589l127.156,120.42c5.531,5.238 13.273,7.386 20.714,5.755l104.422,-22.943c7.934,-1.743 14.417,-7.627 16.918,-15.356l55.194,-170.6c3.575,-11.051 -1.682,-23.053 -12.229,-27.916l-180.384,-83.19c-10.232,-4.72 -22.256,-1.384 -28.595,7.93l-106.39,156.311Zm146.119,177.302c-11.123,0 -21.952,-4.227 -30.209,-12.045l-127.156,-120.42c-15.74,-14.906 -18.311,-38.733 -6.114,-56.653l106.389,-156.311c12.138,-17.831 35.163,-24.219 54.751,-15.185l180.383,83.191c20.194,9.312 30.26,32.291 23.415,53.45l-55.194,170.601c-4.788,14.799 -17.2,26.065 -32.392,29.403l-104.422,22.941c-3.138,0.69 -6.307,1.028 -9.451,1.028" style="fill:#f9e8d5;fill-rule:nonzero;"/><path d="M18.418,182.885c-8.59,12.621 -6.779,29.401 4.306,39.899l127.157,120.42c7.458,7.065 17.901,9.963 27.931,7.76l104.421,-22.941c10.7,-2.351 19.442,-10.286 22.814,-20.708l55.194,-170.6c4.821,-14.902 -2.269,-31.085 -16.491,-37.643l-180.383,-83.191c-13.797,-6.364 -30.012,-1.864 -38.559,10.693l-106.39,156.311Zm152.736,173.803c-9.099,0 -17.958,-3.457 -24.712,-9.853l-127.156,-120.42c-12.875,-12.194 -14.979,-31.683 -5.002,-46.343l106.39,-156.31c9.928,-14.587 28.764,-19.811 44.787,-12.422l180.383,83.191c16.519,7.618 24.753,26.415 19.154,43.723l-55.194,170.6c-3.917,12.105 -14.07,21.322 -26.497,24.052l-104.422,22.941c-2.567,0.564 -5.159,0.841 -7.731,0.841" style="fill:#2f3335;fill-rule:nonzero;"/><path d="M105.159,99.838l0,62.448l17.285,0l0,-45.163l45.163,0l0,-17.285l-62.448,0Z" style="fill:#f9e8d5;fill-rule:nonzero;"/><path d="M269.643,99.838l-62.448,0l0,17.285l45.163,0l0,45.163l17.285,0l0,-62.448Z" style="fill:#f9e8d5;fill-rule:nonzero;"/><path d="M252.358,247.595l-45.163,0l0,17.285l62.448,0l0,-62.448l-17.285,0l0,45.163Z" style="fill:#f9e8d5;fill-rule:nonzero;"/><path d="M122.444,202.431l-17.285,0l0,62.448l62.448,0l0,-17.285l-45.163,0l0,-45.163Z" style="fill:#f9e8d5;fill-rule:nonzero;"/></g></svg>