<?xml version="1.0" encoding="UTF-8" standalone="no"?><!DOCTYPE svg PUBLIC "-//W3C//DTD SVG 1.1//EN" "http://www.w3.org/Graphics/SVG/1.1/DTD/svg11.dtd"><svg width="100%" height="100%" viewBox="0 0 434 376" version="1.1" xmlns="http://www.w3.org/2000/svg" xmlns:xlink="http://www.w3.org/1999/xlink" xml:space="preserve" xmlns:serif="http://www.serif.com/" style="fill-rule:evenodd;clip-rule:evenodd;stroke-linejoin:round;stroke-miterlimit:2;"><g><path d="M117.606,52.997c9.776,3.349 20.289,3.919 30.37,1.649l86.145,-19.4c2.986,-0.672 5.911,-1.589 8.746,-2.741l44.109,-17.914c24.259,-9.853 52.106,-1.531 66.981,20.017l59.409,86.056c10.569,15.311 12.821,34.88 6.006,52.191l-39.28,99.778c-6.226,15.815 -19.314,27.934 -35.561,32.928l-183.671,56.457c-21.487,6.605 -44.84,-0.316 -59.26,-17.562l-78.076,-93.38c-12.076,-14.443 -16.063,-33.997 -10.607,-52.015l33.134,-109.413c9.169,-30.276 41.628,-46.902 71.555,-36.651" style="fill:#f4ae4c;fill-rule:nonzero;"/><path d="M330.111,185.483c0,62.419 -50.6,113.019 -113.019,113.019c-62.418,0 -113.018,-50.6 -113.018,-113.019c0,-62.419 50.6,-113.019 113.018,-113.019c62.419,0 113.019,50.6 113.019,113.019" style="fill:#f5ad4a;fill-rule:nonzero;"/><path d="M325.199,185.483c0,59.706 -48.401,108.107 -108.107,108.107c-59.705,0 -108.106,-48.401 -108.106,-108.107c0,-59.706 48.401,-108.106 108.106,-108.106c59.706,0 108.107,48.4 108.107,108.106" style="fill:#f9e8d5;fill-rule:nonzero;"/><path d="M268.111,185.483c0,28.177 -22.842,51.018 -51.018,51.018c-28.177,0 -51.018,-22.841 -51.018,-51.018c0,-28.177 22.841,-51.018 51.018,-51.018c28.176,0 51.018,22.841 51.018,51.018" style="fill:#f6af4c;fill-rule:nonzero;"/><path d="M226.231,185.484c0,5.047 -4.091,9.138 -9.138,9.138c-5.047,0 -9.138,-4.091 -9.138,-9.138c0,-5.047 4.091,-9.138 9.138,-9.138c5.047,0 9.138,4.091 9.138,9.138" style="fill:#f9e8d5;fill-rule:nonzero;"/><path d="M299.139,182.297c-1.303,0 -2.402,-1.01 -2.492,-2.33c-1.866,-27.334 -17.398,-51.485 -41.546,-64.603c-1.213,-0.659 -1.663,-2.177 -1.004,-3.39c0.659,-1.213 2.177,-1.661 3.391,-1.004c25.66,13.939 42.164,39.605 44.148,68.657c0.094,1.377 -0.947,2.57 -2.324,2.664c-0.058,0.004 -0.116,0.006 -0.173,0.006" style="fill:#f6af4c;fill-rule:nonzero;"/><path d="M195.55,267.376c-0.216,0 -0.436,-0.028 -0.655,-0.088c-31.737,-8.592 -55.812,-35.072 -61.335,-67.462c-0.232,-1.36 0.683,-2.652 2.044,-2.885c1.363,-0.221 2.652,0.684 2.884,2.045c5.197,30.476 27.851,55.391 57.714,63.476c1.332,0.36 2.12,1.733 1.76,3.066c-0.302,1.115 -1.311,1.848 -2.412,1.848" style="fill:#f6af4c;fill-rule:nonzero;"/><path d="M195.551,254.793c-0.254,0 -0.512,-0.039 -0.767,-0.121c-21.228,-6.84 -38.439,-23.447 -46.041,-44.428c-0.47,-1.298 0.201,-2.731 1.499,-3.202c1.298,-0.468 2.731,0.202 3.202,1.499c7.079,19.537 23.107,35.003 42.873,41.371c1.315,0.424 2.036,1.832 1.613,3.147c-0.341,1.059 -1.323,1.734 -2.379,1.734" style="fill:#f6af4c;fill-rule:nonzero;"/><path d="M285.84,173.832c-1.163,0 -2.205,-0.816 -2.447,-1.999c-3.561,-17.394 -13.67,-32.476 -28.463,-42.471c-1.144,-0.772 -1.445,-2.327 -0.673,-3.47c0.773,-1.145 2.326,-1.447 3.472,-0.672c15.883,10.73 26.737,26.928 30.563,45.609c0.277,1.354 -0.596,2.674 -1.948,2.951c-0.169,0.034 -0.338,0.052 -0.504,0.052" style="fill:#f6af4c;fill-rule:nonzero;"/><path d="M135.089,290.008c-0.776,0 -1.557,-0.257 -2.206,-0.784c-31.396,-25.516 -49.402,-63.327 -49.402,-103.74c0,-30.11 9.776,-58.536 28.273,-82.205c1.191,-1.522 3.39,-1.793 4.913,-0.603c1.523,1.19 1.793,3.39 0.603,4.913c-17.526,22.427 -26.789,49.362 -26.789,77.895c0,38.296 17.064,74.128 46.817,98.308c1.5,1.219 1.728,3.423 0.509,4.923c-0.692,0.852 -1.701,1.293 -2.718,1.293" style="fill:#f9e8d5;fill-rule:nonzero;"/><path d="M331.498,251.003c-0.564,0 -1.137,-0.137 -1.668,-0.426c-1.698,-0.923 -2.327,-3.048 -1.405,-4.746c9.996,-18.4 15.28,-39.268 15.28,-60.347c0,-40.21 -19.393,-78.42 -51.876,-102.213c-1.559,-1.142 -1.897,-3.332 -0.755,-4.892c1.142,-1.559 3.332,-1.898 4.892,-0.755c34.276,25.106 54.739,65.427 54.739,107.86c0,22.243 -5.577,44.266 -16.128,63.689c-0.635,1.168 -1.838,1.83 -3.079,1.83" style="fill:#f9e8d5;fill-rule:nonzero;"/><path d="M122.098,304.882c-0.781,0 -1.567,-0.26 -2.218,-0.794c-35.676,-29.274 -56.137,-72.504 -56.137,-118.604c0,-34.282 11.06,-66.7 31.984,-93.749c1.184,-1.53 3.381,-1.81 4.911,-0.627c1.528,1.182 1.809,3.381 0.627,4.91c-19.968,25.812 -30.522,56.749 -30.522,89.466c0,43.996 19.528,85.252 53.577,113.192c1.494,1.227 1.712,3.432 0.486,4.926c-0.692,0.843 -1.696,1.28 -2.708,1.28" style="fill:#f9e8d5;fill-rule:nonzero;"/><path d="M351.257,255.796c-0.525,0 -1.058,-0.119 -1.56,-0.369c-1.73,-0.863 -2.432,-2.965 -1.569,-4.694c10.162,-20.367 15.315,-42.32 15.315,-65.249c0,-45.754 -20.813,-88.033 -57.101,-115.997c-1.531,-1.179 -1.816,-3.377 -0.636,-4.909c1.18,-1.531 3.378,-1.814 4.908,-0.635c38.022,29.298 59.829,73.599 59.829,121.541c0,24.024 -5.401,47.028 -16.051,68.374c-0.613,1.227 -1.85,1.938 -3.135,1.938" style="fill:#f9e8d5;fill-rule:nonzero;"/><path d="M99.45,60.453c-7.081,0 -14.11,1.684 -20.62,5.019c-11.057,5.663 -19.13,15.331 -22.731,27.22l-33.133,109.412c-4.446,14.68 -1.226,30.47 8.613,42.238l78.076,93.379c11.738,14.04 30.625,19.635 48.119,14.261l183.672,-56.457c13.266,-4.078 23.791,-13.823 28.876,-26.738l39.279,-99.777c5.544,-14.082 3.721,-29.925 -4.877,-42.38l-59.409,-86.056c-12.172,-17.632 -34.538,-24.318 -54.389,-16.254l-44.108,17.914c-3.352,1.363 -6.848,2.458 -10.389,3.256l-86.147,19.4c-11.983,2.7 -24.46,2.021 -36.079,-1.958c-4.835,-1.657 -9.806,-2.479 -14.753,-2.479m44.933,314.55c-19.312,0.001 -37.997,-8.452 -50.839,-23.811l-78.076,-93.38c-14.394,-17.216 -19.105,-40.317 -12.601,-61.794l33.134,-109.412c5.268,-17.396 17.078,-31.54 33.256,-39.826c16.177,-8.286 34.554,-9.606 51.751,-3.716c7.942,2.722 16.469,3.183 24.66,1.339l86.146,-19.399c2.419,-0.546 4.808,-1.294 7.099,-2.226l44.111,-17.915c13.938,-5.66 29.552,-6.405 43.967,-2.098c14.415,4.308 27.06,13.499 35.606,25.879l59.409,86.056c12.579,18.221 15.247,41.4 7.135,62.003l-39.279,99.777c-7.439,18.895 -22.837,33.153 -42.247,39.118l-183.671,56.457c-6.456,1.984 -13.046,2.947 -19.561,2.948" style="fill:#f9e8d5;fill-rule:nonzero;"/><path d="M99.441,52.448c-8.329,0 -16.6,1.98 -24.257,5.902c-13.008,6.663 -22.504,18.036 -26.741,32.024l-33.133,109.412c-5.23,17.269 -1.442,35.844 10.132,49.687l78.076,93.38c13.81,16.517 36.031,23.103 56.608,16.776l183.671,-56.457c15.606,-4.797 27.988,-16.261 33.969,-31.455l39.28,-99.777c6.522,-16.566 4.377,-35.203 -5.738,-49.855l-59.408,-86.056c-14.32,-20.742 -40.631,-28.608 -63.983,-19.121l-44.109,17.914c-2.949,1.198 -6.023,2.162 -9.137,2.863l-86.146,19.4c-10.539,2.374 -21.511,1.777 -31.729,-1.722c-5.687,-1.948 -11.536,-2.915 -17.355,-2.915m44.95,314.552c-16.983,0.002 -33.415,-7.433 -44.709,-20.94l-78.076,-93.38c-12.659,-15.14 -16.801,-35.456 -11.082,-54.343l33.134,-109.412c4.633,-15.299 15.02,-27.738 29.246,-35.025c14.227,-7.287 30.39,-8.447 45.512,-3.267c9.343,3.201 19.376,3.744 29.011,1.575l86.145,-19.4c2.848,-0.642 5.658,-1.523 8.354,-2.619l44.109,-17.914c25.542,-10.372 54.318,-1.772 69.979,20.914l59.409,86.056c11.062,16.024 13.409,36.408 6.275,54.527l-39.279,99.778c-6.542,16.616 -20.084,29.155 -37.153,34.401l-183.672,56.457c-5.677,1.745 -11.473,2.592 -17.203,2.592" style="fill:#2f3335;fill-rule:nonzero;"/></g></svg>